<svg width="30" height="30" viewBox="0 0 30 30" fill="none" xmlns="http://www.w3.org/2000/svg">
<path fill-rule="evenodd" clip-rule="evenodd" d="M23.6672 23.6672C21.2742 26.0607 18.1371 27.2572 15 27.2572C11.8629 27.2572 8.72578 26.0607 6.33281 23.6672C3.93926 21.2742 2.74277 18.1371 2.74277 15C2.74277 11.8629 3.93926 8.72578 6.33281 6.33281L6.6293 6.03633L23.9637 23.3707L23.6672 23.6672ZM19.0371 6.0627C19.0371 5.46211 19.9693 5.4416 19.9693 6.0627V6.84668C19.9693 7.44902 19.0371 7.46777 19.0371 6.84668V6.0627ZM21.2941 8.66484C21.7688 9.13945 22.0623 9.7957 22.0623 10.5193C22.0623 11.2436 21.7693 11.8986 21.2941 12.3732C20.8195 12.8484 20.1645 13.1414 19.4402 13.1414C18.716 13.1414 18.0604 12.8484 17.5857 12.3732C17.1117 11.8986 16.8176 11.2436 16.8176 10.5193C16.8176 9.79512 17.1111 9.13945 17.5857 8.66484C18.0604 8.19082 18.716 7.89668 19.4402 7.89668C20.1381 7.89668 20.8008 8.17148 21.2941 8.66484ZM16.0043 7.65234C15.5701 7.21875 16.2305 6.56133 16.6629 6.99375L17.2266 7.55859C17.642 7.99805 16.9857 8.63437 16.558 8.20664L16.0043 7.65234ZM14.9836 10.9219C14.3736 10.9219 14.3736 9.98965 14.9836 9.98965H15.767C16.3781 9.98965 16.3775 10.9219 15.767 10.9219H14.9836ZM16.5732 13.9547C16.1391 14.3889 15.4816 13.7285 15.9146 13.2961L16.4689 12.7418C16.9025 12.3082 17.5605 12.9674 17.1275 13.4004L16.5732 13.9547ZM19.8422 14.9754C19.8422 15.5854 18.9105 15.5854 18.9105 14.9754V14.192C18.9105 13.5814 19.8422 13.5814 19.8422 14.192V14.9754ZM22.885 13.3963C23.2998 13.8352 22.6441 14.4721 22.217 14.0443L21.6527 13.4801C21.2379 13.04 21.8941 12.4043 22.3213 12.8314L22.885 13.3963ZM23.8963 10.1168C24.4969 10.1168 24.5174 11.0484 23.8963 11.0484H23.1123C22.51 11.0484 22.4912 10.1168 23.1123 10.1168H23.8963ZM22.3066 7.0834C22.7402 6.6498 23.3982 7.30898 22.9652 7.74258L22.4109 8.29688C21.9773 8.73047 21.3187 8.07129 21.7523 7.6377L22.3066 7.0834ZM4.39336 4.39395C7.32246 1.46484 11.1615 0 15 0C18.8385 0 22.6775 1.46484 25.6061 4.39336C28.5352 7.32246 30 11.1615 30 15C30 18.8385 28.5352 22.6775 25.6066 25.6061C22.6775 28.5352 18.8385 30 15 30C11.1615 30 7.32246 28.5352 4.39395 25.6066C1.46484 22.6775 0 18.8385 0 15C0 11.1615 1.46484 7.32246 4.39336 4.39395ZM5.28281 5.28223C2.59922 7.96582 1.25742 11.4832 1.25742 15C1.25742 18.5168 2.59922 22.0342 5.28223 24.7172C7.96582 27.4008 11.4832 28.7426 15 28.7426C18.5168 28.7426 22.0342 27.4008 24.7172 24.7178C27.4008 22.0342 28.7426 18.5168 28.7426 15C28.7426 11.4832 27.4008 7.96582 24.7178 5.28281C22.0342 2.59922 18.5168 1.25742 15 1.25742C11.4832 1.25742 7.96582 2.59922 5.28281 5.28223ZM11.5277 14.9572C10.575 15.4225 9.89004 16.3687 9.81035 17.5025C9.69141 19.1941 10.9664 20.6619 12.658 20.7809C13.4613 20.8371 14.2137 20.5793 14.7955 20.1117C15.0838 19.8803 15.3814 20.0842 15.2561 20.3766C14.5682 21.9797 12.9229 23.0496 11.0842 22.9201C8.76035 22.7566 7.00898 20.741 7.17246 18.4172C7.32891 16.1906 9.19512 14.4832 11.4035 14.5037C11.8102 14.5072 11.8969 14.7768 11.5277 14.9572ZM11.6443 17.642L11.6701 17.6484C11.7193 17.4381 11.8424 17.2723 12.0363 17.1521C12.2309 17.032 12.433 16.9963 12.6439 17.0461L12.6498 17.0203C12.44 16.9705 12.2742 16.848 12.1541 16.6541C12.034 16.459 11.9982 16.2568 12.048 16.0471L12.0223 16.0406C11.9725 16.251 11.85 16.4168 11.6555 16.5369C11.4609 16.657 11.2588 16.6928 11.0479 16.643L11.042 16.6688C11.2523 16.7186 11.4182 16.841 11.5377 17.035C11.659 17.2289 11.6941 17.4316 11.6443 17.642ZM13.9746 19.002L14.0068 19.0096C14.0695 18.7453 14.223 18.5379 14.4668 18.3867C14.7111 18.2355 14.9654 18.1916 15.2297 18.2537L15.2373 18.2215C14.973 18.1594 14.7656 18.0059 14.6145 17.7609C14.4639 17.5166 14.4193 17.2623 14.4814 16.9986L14.4492 16.991C14.3871 17.2553 14.2336 17.4633 13.9893 17.6145C13.7449 17.765 13.4912 17.8096 13.2264 17.7469L13.2188 17.7791C13.483 17.8418 13.691 17.9947 13.8416 18.2391C13.9928 18.4834 14.0373 18.7377 13.9746 19.002Z" fill="black"/>
</svg>
