<svg width="54" height="49" viewBox="0 0 54 49" fill="none" xmlns="http://www.w3.org/2000/svg">
<path d="M23.6722 0.776809C21.9593 0.967549 19.4678 1.48775 17.9885 1.97327L16.918 2.32007L26.7477 2.30273H36.5773L34.8255 1.79987C33.8717 1.52243 32.334 1.17563 31.4192 1.01957C29.3365 0.690109 25.5408 0.568729 23.6722 0.776809Z" fill="white"/>
<path d="M14.6796 3.20435L13.2197 3.88061L15.8864 3.89795C18.2027 3.89795 18.7866 3.84593 20.266 3.44711C21.2197 3.20435 22.8158 2.90957 23.828 2.77085L25.6771 2.54543H20.9083L16.1394 2.52809L14.6796 3.20435Z" fill="white"/>
<path d="M28.8882 2.78819C29.9004 2.90957 31.4576 3.22169 32.3335 3.46445C33.8128 3.86327 34.1826 3.89795 37.005 3.86327L40.0804 3.81125L38.6206 3.15233L37.1802 2.51075L32.0999 2.52809L27.0391 2.54543L28.8882 2.78819Z" fill="white"/>
<path d="M11.662 4.76502L10.4941 5.45862H12.8688H15.2435L16.6645 4.76502L18.0854 4.07142H15.4576H12.8299L11.662 4.76502Z" fill="white"/>
<path d="M35.8954 4.76495L37.3553 5.44121L40.0219 5.45855C41.4818 5.45855 42.7275 5.52791 42.7859 5.59727C42.8443 5.66663 41.9295 5.70131 40.7421 5.66663C37.8613 5.56259 37.7445 5.63195 39.1265 6.56831C40.1971 7.26191 42.3577 9.13463 43.2725 10.1404L43.6618 10.5739L43.6813 8.31965V6.06545L42.6691 5.35451C40.7032 4.01933 40.8978 4.07135 37.511 4.07135L34.4355 4.08869L35.8954 4.76495Z" fill="white"/>
<path d="M10.3189 5.82276C9.15097 6.1002 9.03418 6.3603 9.03418 8.45844V10.3658L10.494 8.9613C11.3116 8.19834 12.5378 7.19262 13.2191 6.74178C13.9198 6.2736 14.4843 5.85744 14.4843 5.78808C14.4843 5.63202 11.0001 5.64936 10.3189 5.82276Z" fill="white"/>
<path d="M24.6059 5.82276C19.0389 6.25626 13.6667 10.1924 10.9805 15.8279C5.91972 26.4227 11.292 39.445 21.9587 42.3755C23.0681 42.6876 23.7689 42.7396 26.4355 42.7396C29.8029 42.7396 30.9319 42.5315 33.1703 41.5258C35.3114 40.5548 37.8224 38.6127 39.3212 36.74C40.275 35.5609 40.3528 35.3528 39.8078 35.6302C38.854 36.0811 37.2969 35.6302 36.7518 34.7285C36.1874 33.8442 36.5572 32.1969 37.3942 31.9195C37.5694 31.8501 37.472 32.0235 37.1801 32.353C36.4015 33.1679 36.4599 34.2604 37.3358 35.0407C37.8419 35.4915 38.1533 35.6302 38.7178 35.6302C39.7105 35.6302 40.5085 35.162 40.8589 34.3644C41.2287 33.5494 41.0146 32.7865 40.2555 32.1449C39.7689 31.7461 39.6326 31.7287 36.4599 31.6767L33.1898 31.6247L33.1119 34.191L33.0535 36.7573L33.0146 34.2083L32.9757 31.6594L30.9903 31.59L28.9854 31.538L30.9903 31.5033L32.9757 31.4686V29.9947V28.5208H23.7883C14.7372 28.5208 14.601 28.5035 15.1655 28.1914C15.7883 27.8446 32.7616 19.0705 35.4672 17.6833C36.3431 17.2325 37.0633 16.851 37.0633 16.799C37.0633 16.7643 36.9076 16.5042 36.7129 16.2268L36.3625 15.7066L35.584 16.1054C35.1752 16.3135 34.0462 16.903 33.1119 17.3885C32.1582 17.8914 31.438 18.2209 31.4964 18.1342C31.5742 18.0475 32.6253 17.4406 33.8516 16.799C35.0779 16.1574 36.09 15.5678 36.09 15.4811C36.09 15.3944 35.7397 14.8396 35.3114 14.25C34.5913 13.2269 34.5523 13.1056 34.747 12.4987C34.8638 12.1519 35.1947 11.6143 35.5061 11.3022C36.0122 10.7993 36.1679 10.7473 37.1606 10.7473H38.2701L36.8297 9.51618C33.4428 6.63774 29.472 5.42394 24.6059 5.82276ZM34.0268 12.0478C34.5718 12.7934 34.708 13.2269 34.2214 12.6547C33.8516 12.2386 33.326 11.3542 33.4234 11.3542C33.4818 11.3542 33.7348 11.6663 34.0268 12.0478Z" fill="white"/>
<path d="M43.8374 8.59721C43.7596 11.5277 43.8374 11.6144 45.706 10.6433C46.4457 10.2618 47.0686 9.98441 47.1075 10.0191C47.1464 10.0538 46.582 10.3832 45.8618 10.7474C45.1416 11.1115 44.5382 11.441 44.4992 11.4583C44.4214 11.493 44.6549 11.8918 45.0248 12.3773C45.161 12.5681 45.5503 12.4467 46.9712 11.7184L48.7425 10.7994L48.0223 10.0017C47.1659 9.01337 44.2267 6.32566 44.0321 6.32566C43.9542 6.32566 43.8764 7.34872 43.8374 8.59721Z" fill="white"/>
<path d="M7.61354 7.79946C6.99066 8.37168 5.90064 9.49878 5.21937 10.3138L3.97363 11.7877L3.9931 16.5562C4.01256 19.1745 4.05149 21.1339 4.10989 20.8912C4.6549 17.7526 6.09529 14.406 8.00283 11.8397L8.85928 10.6779L8.80088 8.71848L8.74249 6.75906L7.61354 7.79946Z" fill="white"/>
<path d="M35.9153 11.2849C33.8131 12.8455 35.9932 15.7586 38.3095 14.4754C39.127 14.0246 39.3995 13.6604 39.3995 12.9322C39.3995 12.1172 39.0686 11.5623 38.3873 11.1808C37.5114 10.6953 36.6355 10.73 35.9153 11.2849Z" fill="white"/>
<path d="M47.4769 11.6663C46.8346 11.9958 46.1144 12.3773 45.8808 12.4986L45.4332 12.7414L46.1923 14.0939C47.0682 15.6545 48.0025 18.0648 48.3723 19.7468C48.5864 20.7005 48.6643 20.8739 48.7616 20.5271C48.8395 20.3017 48.8979 21.3247 48.8979 22.7986V25.4863L48.6448 23.0587C48.3723 20.4404 47.8857 18.3249 47.1266 16.5215C46.6205 15.3251 45.511 13.2789 45.258 13.0362C45.1801 12.9668 44.8297 13.0362 44.4988 13.2096L43.876 13.5217V20.9259V28.3474H46.095H48.2945L48.4307 27.6885C48.4891 27.3417 48.5475 26.7175 48.5475 26.3013C48.5475 25.9025 48.6254 25.573 48.7422 25.573C48.8589 25.573 48.9173 26.0412 48.8784 26.7001C48.8589 27.3244 48.7811 27.8272 48.7032 27.8272C48.6059 27.8272 48.5475 27.9486 48.5475 28.0873C48.5475 28.2954 48.82 28.3474 49.8906 28.3474C50.786 28.3474 51.2726 28.2781 51.331 28.122C51.4088 27.9486 51.4478 27.9486 51.4478 28.122C51.4672 28.2781 51.7787 28.3474 52.3237 28.3474H53.1996L53.3553 27.5151C53.6083 26.1106 53.4915 22.1224 53.1412 20.3884C52.5572 17.5619 50.747 13.4003 49.2288 11.4756C48.9368 11.1114 48.9368 11.1288 48.9173 11.701L48.8784 12.3079L48.7616 11.6837L48.6448 11.0594L47.4769 11.6663ZM48.8784 18.1515C48.8589 19.2266 48.82 18.3596 48.82 16.2094C48.82 14.0592 48.8589 13.1922 48.8784 14.25C48.9173 15.3251 48.9173 17.0938 48.8784 18.1515Z" fill="white"/>
<path d="M2.66942 14.0592C0.62562 17.8393 0.00274951 20.3536 0.00274951 24.6193C-0.0167152 27.0815 0.0611437 27.8618 0.430973 29.3704C0.99545 31.642 1.61832 33.1852 2.76674 35.2834L3.68158 36.9307L3.73998 30.7229C3.75944 27.3243 3.75944 21.7582 3.73998 18.3595L3.68158 12.1691L2.66942 14.0592Z" fill="white"/>
<path d="M42.3579 14.3019C41.3457 14.8221 41.3457 14.8395 41.6183 15.3077C42.1633 16.2787 42.9419 18.4289 43.2922 19.9374L43.6426 21.498L43.662 17.6312C43.6815 15.5157 43.6231 13.7817 43.5453 13.7817C43.4479 13.7817 42.9224 14.0245 42.3579 14.3019Z" fill="white"/>
<path d="M39.302 15.8799C38.3482 16.3655 37.5112 16.799 37.4723 16.8336C37.4333 16.8683 37.6085 17.1631 37.8421 17.5099C38.0757 17.8567 38.2314 18.1688 38.1925 18.2208C38.1341 18.2555 37.9394 18.0128 37.7253 17.6833C37.4723 17.2498 37.2582 17.0764 37.0246 17.1284C36.8494 17.1804 35.3506 17.9087 33.7156 18.7757C32.0805 19.6427 27.7205 21.8969 24.0222 23.8217C20.3239 25.7291 16.8786 27.5151 16.3336 27.8099L15.3604 28.3301L24.1584 28.3474C31.01 28.3474 32.9565 28.2954 33.0343 28.122C33.1122 27.9486 33.1511 27.9486 33.1511 28.122C33.1706 28.2954 34.319 28.3474 38.2119 28.3474H43.2338L43.3701 27.2897C43.701 24.4286 43.3701 20.4404 42.6499 18.2729C42.2022 16.9724 41.3263 14.9956 41.19 14.9956C41.1122 14.9956 40.2752 15.3944 39.302 15.8799Z" fill="white"/>
<path d="M43.5254 27.9139C43.5254 28.1914 43.5643 28.2954 43.6227 28.122C43.6616 27.966 43.6616 27.7232 43.6227 27.6018C43.5643 27.4978 43.5254 27.6192 43.5254 27.9139Z" fill="white"/>
<path d="M3.9931 32.4569L3.97363 37.3295L5.18045 38.786C6.44565 40.2946 8.39212 42.2194 8.6841 42.2194C8.76195 42.2194 8.83981 41.3003 8.83981 40.1559V38.1098L7.9639 36.9307C6.23154 34.5724 5.04419 32.0061 4.36293 29.0756L3.9931 27.5671V32.4569Z" fill="white"/>
<path d="M51.4678 31.0351C51.4678 32.4223 51.5067 33.5494 51.5651 33.5494C51.6819 33.5494 52.7914 30.3242 53.0055 29.3358L53.1612 28.5208H52.3242H51.4678V31.0351Z" fill="white"/>
<path d="M48.4503 31.7634C47.8274 31.9021 47.0099 32.6998 46.8736 33.3067C46.64 34.3991 47.769 35.6302 49.0342 35.6302C49.7739 35.6302 50.6498 35.1794 50.9807 34.5898C51.915 32.9946 50.4357 31.3473 48.4503 31.7634ZM48.8785 34.4511C48.8396 34.954 48.8201 34.5552 48.8201 33.5494C48.8201 32.5437 48.8396 32.1449 48.8785 32.6304C48.9174 33.1333 48.9174 33.9656 48.8785 34.4511Z" fill="white"/>
<path d="M50.6889 32.0755C50.9419 32.3183 51.1755 32.509 51.2144 32.509C51.2534 32.509 51.2728 32.3183 51.2728 32.0755C51.2728 31.7287 51.1755 31.642 50.7473 31.642H50.2412L50.6889 32.0755Z" fill="white"/>
<path d="M46.0755 34.7285C45.8419 35.1794 45.258 36.0811 44.7714 36.7573L43.876 37.9711V40.3467C43.876 41.6645 43.9538 42.7396 44.0317 42.7396C44.2847 42.7396 47.2823 39.9826 48.1582 38.9248C48.9563 37.9885 50.494 35.7516 50.494 35.5435C50.494 35.4915 50.3188 35.5262 50.1242 35.6302C49.91 35.7169 49.5597 35.8036 49.3456 35.8036C49.0536 35.8036 48.9368 35.9423 48.8784 36.3585L48.8006 36.9307L48.7811 36.4105C48.7422 35.9944 48.5864 35.821 48.0025 35.5435C47.6132 35.3528 47.1461 34.9366 46.9514 34.6245C46.7762 34.295 46.601 34.0176 46.5621 33.9829C46.5232 33.9482 46.3091 34.2777 46.0755 34.7285ZM48.8784 37.659C48.82 37.8324 48.7811 37.7284 48.7811 37.4509C48.7811 37.1561 48.82 37.0348 48.8784 37.1388C48.9173 37.2602 48.9173 37.5029 48.8784 37.659Z" fill="white"/>
<path d="M9.07304 40.5028L9.13144 42.6529L11.6424 42.7049L14.1533 42.757L12.5962 41.6299C11.7592 41.0056 10.6108 40.0172 10.0463 39.4277L9.01465 38.3526L9.07304 40.5028Z" fill="white"/>
<path d="M41.8324 40.0346C40.8787 40.9189 39.7302 41.89 39.302 42.1847L38.5234 42.7223L41.1122 42.7396H43.6816V40.5721C43.6816 39.3757 43.6621 38.4046 43.6427 38.422C43.6037 38.422 42.8057 39.1502 41.8324 40.0346Z" fill="white"/>
<path d="M9.8125 43.0517C9.8125 43.121 10.377 43.5199 11.0388 43.9534L12.2456 44.7337L15.1264 44.7683C16.703 44.7857 17.9877 44.7683 17.9877 44.7337C17.9877 44.699 17.2286 44.3175 16.3137 43.8667L14.6203 43.0517L12.2261 42.9823C10.9025 42.9476 9.8125 42.9823 9.8125 43.0517Z" fill="white"/>
<path d="M36.3435 43.8494L34.5527 44.7511L37.7644 44.7858L40.9566 44.8031L42.1634 44.0748C42.8252 43.676 43.3897 43.2598 43.4286 43.1558C43.487 43.0171 42.689 42.9651 40.8204 42.9477H38.1342L36.3435 43.8494Z" fill="white"/>
<path d="M13.706 45.462L14.5819 45.9475L18.6695 45.9822L22.7571 46.0168L21.1999 45.566C19.8179 45.1672 19.2534 45.1152 16.2364 45.0458L12.8301 44.9764L13.706 45.462Z" fill="white"/>
<path d="M32.6843 45.2539C32.2561 45.3926 31.4775 45.6007 30.9325 45.7394C30.0176 45.9822 30.1928 45.9822 34.2415 45.9995L38.5237 46.0168L39.5943 45.514L40.6648 45.0111H37.0638C34.5529 45.0111 33.2293 45.0978 32.6843 45.2539Z" fill="white"/>
<path d="M16.5669 46.6411C21.7834 48.7739 29.2189 48.9993 35.1946 47.2133C38.6982 46.1729 39.0681 46.2249 26.7469 46.2249L15.5547 46.2423L16.5669 46.6411Z" fill="white"/>
</svg>
