<svg width="22" height="20" viewBox="0 0 22 20" fill="none" xmlns="http://www.w3.org/2000/svg">
<path d="M14.9287 20H5.49971C4.67271 20 3.99971 19.2083 3.99971 18.2353C3.99971 16.9377 4.82271 15.8224 5.91371 15.6389L9.95171 14.893L3.14371 6.88356C2.39871 6.00709 2.39871 4.58121 3.14371 3.70591C3.89471 2.82238 5.10671 2.82356 5.85071 3.69885L7.62271 5.78356C7.70971 5.43532 7.86971 5.10826 8.10271 4.83415C8.79071 4.02356 9.86971 3.95768 10.6177 4.62944C10.7037 4.27297 10.8657 3.93768 11.1027 3.65768C11.7917 2.84709 12.8707 2.78003 13.6187 3.45415C13.7027 3.0965 13.8647 2.76121 14.1027 2.48121C14.8537 1.59768 16.0657 1.59885 16.8097 2.47415L20.5697 7.33532C21.4917 8.52826 21.9997 10.073 21.9997 11.6847C21.9997 13.4106 21.4287 15.0341 20.3907 16.2541L18.8177 18.1047C17.7787 19.3271 16.3977 20 14.9287 20ZM4.49971 4.2165C4.26671 4.2165 4.03371 4.3212 3.85571 4.52944C3.49571 4.95415 3.49571 5.63415 3.85071 6.05179L11.3537 14.8789C11.4867 15.0353 11.5337 15.2671 11.4757 15.4765C11.4167 15.6871 11.2637 15.8412 11.0777 15.8753L6.06271 16.8024C5.45371 16.9047 4.99971 17.52 4.99971 18.2353C4.99971 18.56 5.22371 18.8236 5.49971 18.8236H14.9287C16.1307 18.8236 17.2607 18.273 18.1107 17.273L19.6837 15.4224C20.5327 14.4236 20.9997 13.0965 20.9997 11.6847C20.9997 10.3659 20.5837 9.10238 19.8307 8.12709L16.0867 3.28591C15.7477 2.89062 15.1717 2.88944 14.8157 3.30591C14.6377 3.51532 14.5437 3.78356 14.5437 4.06944C14.5437 4.35532 14.6387 4.62473 14.8107 4.82709L14.8537 4.87768C15.0487 5.10709 15.0487 5.48003 14.8537 5.70944C14.6627 5.93532 14.3527 5.94003 14.1567 5.7212L14.1557 5.72003H14.1547L14.1537 5.71885L14.1527 5.71768L14.1517 5.7165C14.1517 5.7165 14.1527 5.7165 14.1507 5.71532L13.1027 4.48238C12.7487 4.06591 12.1697 4.06591 11.8157 4.48238C11.4547 4.90709 11.4547 5.58591 11.8097 6.00356L12.8527 7.23062C12.9507 7.34591 12.9997 7.4965 12.9997 7.64709C12.9997 7.79768 12.9507 7.94826 12.8537 8.06356C12.6587 8.29297 12.3417 8.29297 12.1467 8.06356L10.1027 5.65885C9.74871 5.24238 9.16971 5.24238 8.81571 5.65885C8.45471 6.08356 8.45471 6.76238 8.80971 7.18003L10.8527 9.58356C10.9507 9.69885 10.9997 9.84944 10.9997 10C10.9997 10.1506 10.9507 10.3012 10.8537 10.4165C10.6587 10.6459 10.3417 10.6459 10.1467 10.4165L5.14371 4.53062C4.96571 4.3212 4.73271 4.2165 4.49971 4.2165Z" fill="black"/>
<path d="M2.859 10.1659C2.79 10.1659 2.72 10.1494 2.653 10.1141C1.042 9.25647 0 7.36471 0 5.29412C0 2.37529 2.019 0 4.5 0C6.26 0 7.868 1.22588 8.596 3.12118C8.71 3.41765 8.598 3.76588 8.346 3.9C8.095 4.03529 7.798 3.90235 7.685 3.60588C7.118 2.13059 5.868 1.17647 4.5 1.17647C2.57 1.17647 1 3.02353 1 5.29412C1 6.90353 1.811 8.37412 3.065 9.04118C3.316 9.17529 3.428 9.52353 3.315 9.82C3.231 10.0365 3.049 10.1659 2.859 10.1659Z" fill="black"/>
</svg>
