<svg width="30" height="30" viewBox="0 0 30 30" fill="none" xmlns="http://www.w3.org/2000/svg">
<path fill-rule="evenodd" clip-rule="evenodd" d="M6.33281 6.33281C8.72578 3.93926 11.8629 2.74277 15 2.74277C18.1371 2.74277 21.2742 3.93926 23.6672 6.33281C26.0607 8.72578 27.2572 11.8629 27.2572 15C27.2572 18.1371 26.0607 21.2742 23.6672 23.6672L23.3707 23.9637L6.03633 6.6293L6.33281 6.33281ZM10.9629 23.9373C10.9629 24.5379 10.0307 24.5584 10.0307 23.9373V23.1533C10.0307 22.551 10.9629 22.5322 10.9629 23.1533V23.9373ZM8.70586 21.3352C8.23125 20.8605 7.93769 20.2043 7.93769 19.4807C7.93769 18.7564 8.23066 18.1014 8.70586 17.6268C9.18047 17.1516 9.83555 16.8586 10.5598 16.8586C11.284 16.8586 11.9396 17.1516 12.4143 17.6268C12.8883 18.1014 13.1824 18.7564 13.1824 19.4807C13.1824 20.2049 12.8889 20.8605 12.4143 21.3352C11.9396 21.8092 11.284 22.1033 10.5598 22.1033C9.86191 22.1033 9.19922 21.8285 8.70586 21.3352ZM13.9957 22.3477C14.4299 22.7812 13.7695 23.4387 13.3371 23.0062L12.7734 22.4414C12.358 22.002 13.0143 21.3656 13.442 21.7934L13.9957 22.3477ZM15.0164 19.0781C15.6264 19.0781 15.6264 20.0104 15.0164 20.0104H14.233C13.6219 20.0104 13.6225 19.0781 14.233 19.0781H15.0164ZM13.4268 16.0453C13.8609 15.6111 14.5184 16.2715 14.0854 16.7039L13.5311 17.2582C13.0975 17.6918 12.4395 17.0326 12.8725 16.5996L13.4268 16.0453ZM10.1578 15.0246C10.1578 14.4146 11.0895 14.4146 11.0895 15.0246L11.0895 15.808C11.0895 16.4186 10.1578 16.4186 10.1578 15.808L10.1578 15.0246ZM7.11504 16.6037C6.7002 16.1648 7.35586 15.5279 7.78301 15.9557L8.34727 16.5199C8.76211 16.96 8.10586 17.5957 7.67871 17.1686L7.11504 16.6037ZM6.10371 19.8832C5.50313 19.8832 5.48262 18.9516 6.10371 18.9516H6.8877C7.49004 18.9516 7.50879 19.8832 6.8877 19.8832H6.10371ZM7.69336 22.9166C7.25977 23.3502 6.60176 22.691 7.03477 22.2574L7.58906 21.7031C8.02266 21.2695 8.68125 21.9287 8.24766 22.3623L7.69336 22.9166ZM25.6066 25.6061C22.6775 28.5352 18.8385 30 15 30C11.1615 30 7.32246 28.5352 4.39394 25.6066C1.46484 22.6775 0 18.8385 0 15C0 11.1615 1.46484 7.32246 4.39336 4.39394C7.32246 1.46484 11.1615 0 15 0C18.8385 0 22.6775 1.46484 25.6061 4.39336C28.5352 7.32246 30 11.1615 30 15C30 18.8385 28.5352 22.6775 25.6066 25.6061ZM24.7172 24.7178C27.4008 22.0342 28.7426 18.5168 28.7426 15C28.7426 11.4832 27.4008 7.96582 24.7178 5.28281C22.0342 2.59922 18.5168 1.25742 15 1.25742C11.4832 1.25742 7.96582 2.59922 5.28281 5.28223C2.59922 7.96582 1.25742 11.4832 1.25742 15C1.25742 18.5168 2.59922 22.0342 5.28223 24.7172C7.96582 27.4008 11.4832 28.7426 15 28.7426C18.5168 28.7426 22.0342 27.4008 24.7172 24.7178ZM18.4723 15.0428C19.425 14.5775 20.11 13.6313 20.1896 12.4975C20.3086 10.8059 19.0336 9.33809 17.342 9.21914C16.5387 9.16289 15.7863 9.4207 15.2045 9.88828C14.9162 10.1197 14.6186 9.91582 14.7439 9.62344C15.4318 8.02031 17.0771 6.95039 18.9158 7.07988C21.2396 7.24336 22.991 9.25898 22.8275 11.5828C22.6711 13.8094 20.8049 15.5168 18.5965 15.4963C18.1898 15.4928 18.1031 15.2232 18.4723 15.0428ZM18.3557 12.358L18.3299 12.3516C18.2807 12.5619 18.1576 12.7277 17.9637 12.8479C17.7691 12.968 17.567 13.0037 17.3561 12.9539L17.3502 12.9797C17.56 13.0295 17.7258 13.152 17.8459 13.3459C17.966 13.541 18.0018 13.7432 17.952 13.9529L17.9777 13.9594C18.0275 13.749 18.15 13.5832 18.3445 13.4631C18.5391 13.343 18.7412 13.3072 18.9521 13.357L18.958 13.3312C18.7477 13.2814 18.5818 13.159 18.4623 12.965C18.341 12.7711 18.3059 12.5684 18.3557 12.358ZM16.0254 10.998L15.9932 10.9904C15.9305 11.2547 15.777 11.4621 15.5332 11.6133C15.2889 11.7645 15.0346 11.8084 14.7703 11.7463L14.7627 11.7785C15.027 11.8406 15.2344 11.9941 15.3855 12.2391C15.5361 12.4834 15.5807 12.7377 15.5186 13.0014L15.5508 13.009C15.6129 12.7447 15.7664 12.5367 16.0107 12.3855C16.2551 12.235 16.5088 12.1904 16.7736 12.2531L16.7812 12.2209C16.517 12.1582 16.309 12.0053 16.1584 11.7609C16.0072 11.5166 15.9627 11.2623 16.0254 10.998Z" fill="white"/>
</svg>
