<svg width="54" height="49" viewBox="0 0 54 49" fill="none" xmlns="http://www.w3.org/2000/svg">
<path d="M23.6722 0.777785C21.9593 0.968525 19.4678 1.48873 17.9885 1.97425L16.918 2.32104L26.7477 2.3037H36.5773L34.8255 1.80085C33.8717 1.52341 32.334 1.17661 31.4192 1.02055C29.3365 0.691085 25.5408 0.569705 23.6722 0.777785Z" fill="black"/>
<path d="M14.6796 3.20533L13.2197 3.88159L15.8864 3.89893C18.2027 3.89893 18.7866 3.84691 20.266 3.44809C21.2197 3.20533 22.8158 2.91055 23.828 2.77183L25.6771 2.54641H20.9083L16.1394 2.52907L14.6796 3.20533Z" fill="black"/>
<path d="M28.8882 2.78916C29.9004 2.91054 31.4576 3.22266 32.3335 3.46543C33.8128 3.86425 34.1826 3.89893 37.005 3.86425L40.0804 3.81223L38.6206 3.1533L37.1802 2.51172L32.0999 2.52906L27.0391 2.5464L28.8882 2.78916Z" fill="black"/>
<path d="M11.662 4.76599L10.4941 5.45959H12.8688H15.2435L16.6645 4.76599L18.0854 4.07239H15.4576H12.8299L11.662 4.76599Z" fill="black"/>
<path d="M35.8954 4.76593L37.3553 5.44219L40.0219 5.45953C41.4818 5.45953 42.7275 5.52889 42.7859 5.59825C42.8443 5.66761 41.9295 5.70229 40.7421 5.66761C37.8613 5.56357 37.7445 5.63293 39.1265 6.56929C40.1971 7.26289 42.3577 9.13561 43.2725 10.1413L43.6618 10.5748L43.6813 8.32063V6.06643L42.6691 5.35549C40.7032 4.02031 40.8978 4.07233 37.511 4.07233L34.4355 4.08967L35.8954 4.76593Z" fill="black"/>
<path d="M10.3189 5.82374C9.15097 6.10118 9.03418 6.36128 9.03418 8.45942V10.3668L10.494 8.96228C11.3116 8.19932 12.5378 7.1936 13.2191 6.74276C13.9198 6.27458 14.4843 5.85842 14.4843 5.78906C14.4843 5.633 11.0001 5.65034 10.3189 5.82374Z" fill="black"/>
<path d="M24.6059 5.82374C19.0389 6.25724 13.6667 10.1934 10.9805 15.8289C5.91972 26.4237 11.292 39.446 21.9587 42.3765C23.0681 42.6886 23.7689 42.7406 26.4355 42.7406C29.8029 42.7406 30.9319 42.5325 33.1703 41.5268C35.3114 40.5558 37.8224 38.6137 39.3212 36.741C40.275 35.5618 40.3528 35.3538 39.8078 35.6312C38.854 36.082 37.2969 35.6312 36.7518 34.7295C36.1874 33.8452 36.5572 32.1979 37.3942 31.9204C37.5694 31.8511 37.472 32.0245 37.1801 32.3539C36.4015 33.1689 36.4599 34.2613 37.3358 35.0416C37.8419 35.4925 38.1533 35.6312 38.7178 35.6312C39.7105 35.6312 40.5085 35.163 40.8589 34.3654C41.2287 33.5504 41.0146 32.7874 40.2555 32.1459C39.7689 31.747 39.6326 31.7297 36.4599 31.6777L33.1898 31.6257L33.1119 34.192L33.0535 36.7583L33.0146 34.2093L32.9757 31.6603L30.9903 31.591L28.9854 31.539L30.9903 31.5043L32.9757 31.4696V29.9957V28.5218H23.7883C14.7372 28.5218 14.601 28.5045 15.1655 28.1923C15.7883 27.8455 32.7616 19.0715 35.4672 17.6843C36.3431 17.2335 37.0633 16.852 37.0633 16.8C37.0633 16.7653 36.9076 16.5052 36.7129 16.2277L36.3625 15.7075L35.584 16.1064C35.1752 16.3144 34.0462 16.904 33.1119 17.3895C32.1582 17.8924 31.438 18.2218 31.4964 18.1351C31.5742 18.0484 32.6253 17.4415 33.8516 16.8C35.0779 16.1584 36.09 15.5688 36.09 15.4821C36.09 15.3954 35.7397 14.8405 35.3114 14.251C34.5913 13.2279 34.5523 13.1065 34.747 12.4996C34.8638 12.1528 35.1947 11.6153 35.5061 11.3032C36.0122 10.8003 36.1679 10.7483 37.1606 10.7483H38.2701L36.8297 9.51716C33.4428 6.63872 29.472 5.42492 24.6059 5.82374ZM34.0268 12.0488C34.5718 12.7944 34.708 13.2279 34.2214 12.6557C33.8516 12.2395 33.326 11.3552 33.4234 11.3552C33.4818 11.3552 33.7348 11.6673 34.0268 12.0488Z" fill="black"/>
<path d="M43.8374 8.59818C43.7596 11.5286 43.8374 11.6153 45.706 10.6443C46.4457 10.2628 47.0686 9.98538 47.1075 10.0201C47.1464 10.0547 46.582 10.3842 45.8618 10.7483C45.1416 11.1125 44.5382 11.4419 44.4992 11.4593C44.4214 11.494 44.6549 11.8928 45.0248 12.3783C45.161 12.569 45.5503 12.4477 46.9712 11.7194L48.7425 10.8004L48.0223 10.0027C47.1659 9.01434 44.2267 6.32664 44.0321 6.32664C43.9542 6.32664 43.8764 7.3497 43.8374 8.59818Z" fill="black"/>
<path d="M7.61354 7.80044C6.99066 8.37266 5.90064 9.49976 5.21937 10.3147L3.97363 11.7886L3.9931 16.5571C4.01256 19.1755 4.05149 21.1349 4.10989 20.8921C4.6549 17.7536 6.09529 14.407 8.00283 11.8407L8.85928 10.6789L8.80088 8.71946L8.74249 6.76004L7.61354 7.80044Z" fill="black"/>
<path d="M35.9153 11.2858C33.8131 12.8464 35.9932 15.7596 38.3095 14.4764C39.127 14.0256 39.3995 13.6614 39.3995 12.9331C39.3995 12.1182 39.0686 11.5633 38.3873 11.1818C37.5114 10.6963 36.6355 10.731 35.9153 11.2858Z" fill="black"/>
<path d="M47.4769 11.6673C46.8346 11.9968 46.1144 12.3782 45.8808 12.4996L45.4332 12.7424L46.1923 14.0949C47.0682 15.6555 48.0025 18.0658 48.3723 19.7477C48.5864 20.7014 48.6643 20.8748 48.7616 20.528C48.8395 20.3026 48.8979 21.3257 48.8979 22.7996V25.4873L48.6448 23.0597C48.3723 20.4413 47.8857 18.3259 47.1266 16.5225C46.6205 15.326 45.511 13.2799 45.258 13.0372C45.1801 12.9678 44.8297 13.0372 44.4988 13.2106L43.876 13.5227V20.9269V28.3484H46.095H48.2945L48.4307 27.6895C48.4891 27.3427 48.5475 26.7184 48.5475 26.3023C48.5475 25.9034 48.6254 25.574 48.7422 25.574C48.8589 25.574 48.9173 26.0422 48.8784 26.7011C48.8589 27.3253 48.7811 27.8282 48.7032 27.8282C48.6059 27.8282 48.5475 27.9496 48.5475 28.0883C48.5475 28.2964 48.82 28.3484 49.8906 28.3484C50.786 28.3484 51.2726 28.279 51.331 28.123C51.4088 27.9496 51.4478 27.9496 51.4478 28.123C51.4672 28.279 51.7787 28.3484 52.3237 28.3484H53.1996L53.3553 27.5161C53.6083 26.1115 53.4915 22.1233 53.1412 20.3893C52.5572 17.5629 50.747 13.4013 49.2288 11.4766C48.9368 11.1124 48.9368 11.1298 48.9173 11.702L48.8784 12.3089L48.7616 11.6846L48.6448 11.0604L47.4769 11.6673ZM48.8784 18.1525C48.8589 19.2275 48.82 18.3605 48.82 16.2104C48.82 14.0602 48.8589 13.1932 48.8784 14.251C48.9173 15.326 48.9173 17.0947 48.8784 18.1525Z" fill="black"/>
<path d="M2.66942 14.0602C0.62562 17.8403 0.00274951 20.3546 0.00274951 24.6202C-0.0167152 27.0825 0.0611437 27.8628 0.430973 29.3714C0.99545 31.6429 1.61832 33.1862 2.76674 35.2843L3.68158 36.9316L3.73998 30.7239C3.75944 27.3253 3.75944 21.7591 3.73998 18.3605L3.68158 12.1701L2.66942 14.0602Z" fill="black"/>
<path d="M42.3579 14.3029C41.3457 14.8231 41.3457 14.8405 41.6183 15.3086C42.1633 16.2797 42.9419 18.4298 43.2922 19.9384L43.6426 21.499L43.662 17.6322C43.6815 15.5167 43.6231 13.7827 43.5453 13.7827C43.4479 13.7827 42.9224 14.0255 42.3579 14.3029Z" fill="black"/>
<path d="M39.302 15.8809C38.3482 16.3664 37.5112 16.7999 37.4723 16.8346C37.4333 16.8693 37.6085 17.1641 37.8421 17.5109C38.0757 17.8577 38.2314 18.1698 38.1925 18.2218C38.1341 18.2565 37.9394 18.0137 37.7253 17.6843C37.4723 17.2508 37.2582 17.0774 37.0246 17.1294C36.8494 17.1814 35.3506 17.9097 33.7156 18.7767C32.0805 19.6437 27.7205 21.8979 24.0222 23.8226C20.3239 25.73 16.8786 27.5161 16.3336 27.8108L15.3604 28.331L24.1584 28.3484C31.01 28.3484 32.9565 28.2964 33.0343 28.123C33.1122 27.9496 33.1511 27.9496 33.1511 28.123C33.1706 28.2964 34.319 28.3484 38.2119 28.3484H43.2338L43.3701 27.2906C43.701 24.4295 43.3701 20.4413 42.6499 18.2738C42.2022 16.9733 41.3263 14.9966 41.19 14.9966C41.1122 14.9966 40.2752 15.3954 39.302 15.8809Z" fill="black"/>
<path d="M43.5254 27.9149C43.5254 28.1924 43.5643 28.2964 43.6227 28.123C43.6616 27.9669 43.6616 27.7242 43.6227 27.6028C43.5643 27.4987 43.5254 27.6201 43.5254 27.9149Z" fill="black"/>
<path d="M3.9931 32.4579L3.97363 37.3305L5.18045 38.787C6.44565 40.2956 8.39212 42.2203 8.6841 42.2203C8.76195 42.2203 8.83981 41.3013 8.83981 40.1569V38.1108L7.9639 36.9316C6.23154 34.5734 5.04419 32.0071 4.36293 29.0766L3.9931 27.568V32.4579Z" fill="black"/>
<path d="M51.4678 31.0361C51.4678 32.4233 51.5067 33.5504 51.5651 33.5504C51.6819 33.5504 52.7914 30.3252 53.0055 29.3368L53.1612 28.5218H52.3242H51.4678V31.0361Z" fill="black"/>
<path d="M48.4503 31.7644C47.8274 31.9031 47.0099 32.7008 46.8736 33.3077C46.64 34.4001 47.769 35.6312 49.0342 35.6312C49.7739 35.6312 50.6498 35.1804 50.9807 34.5908C51.915 32.9955 50.4357 31.3482 48.4503 31.7644ZM48.8785 34.4521C48.8396 34.955 48.8201 34.5561 48.8201 33.5504C48.8201 32.5447 48.8396 32.1459 48.8785 32.6314C48.9174 33.1343 48.9174 33.9666 48.8785 34.4521Z" fill="black"/>
<path d="M50.6889 32.0765C50.9419 32.3193 51.1755 32.51 51.2144 32.51C51.2534 32.51 51.2728 32.3193 51.2728 32.0765C51.2728 31.7297 51.1755 31.643 50.7473 31.643H50.2412L50.6889 32.0765Z" fill="black"/>
<path d="M46.0755 34.7295C45.8419 35.1804 45.258 36.082 44.7714 36.7583L43.876 37.9721V40.3477C43.876 41.6655 43.9538 42.7406 44.0317 42.7406C44.2847 42.7406 47.2823 39.9835 48.1582 38.9258C48.9563 37.9894 50.494 35.7526 50.494 35.5445C50.494 35.4925 50.3188 35.5272 50.1242 35.6312C49.91 35.7179 49.5597 35.8046 49.3456 35.8046C49.0536 35.8046 48.9368 35.9433 48.8784 36.3595L48.8006 36.9317L48.7811 36.4115C48.7422 35.9953 48.5864 35.8219 48.0025 35.5445C47.6132 35.3538 47.1461 34.9376 46.9514 34.6255C46.7762 34.296 46.601 34.0186 46.5621 33.9839C46.5232 33.9492 46.3091 34.2787 46.0755 34.7295ZM48.8784 37.66C48.82 37.8334 48.7811 37.7293 48.7811 37.4519C48.7811 37.1571 48.82 37.0357 48.8784 37.1398C48.9173 37.2612 48.9173 37.5039 48.8784 37.66Z" fill="black"/>
<path d="M9.07304 40.5037L9.13144 42.6539L11.6424 42.7059L14.1533 42.7579L12.5962 41.6308C11.7592 41.0066 10.6108 40.0182 10.0463 39.4287L9.01465 38.3536L9.07304 40.5037Z" fill="black"/>
<path d="M41.8324 40.0356C40.8787 40.9199 39.7302 41.8909 39.302 42.1857L38.5234 42.7233L41.1122 42.7406H43.6816V40.5731C43.6816 39.3766 43.6621 38.4056 43.6427 38.4229C43.6037 38.4229 42.8057 39.1512 41.8324 40.0356Z" fill="black"/>
<path d="M9.8125 43.0527C9.8125 43.122 10.377 43.5208 11.0388 43.9543L12.2456 44.7346L15.1264 44.7693C16.703 44.7867 17.9877 44.7693 17.9877 44.7346C17.9877 44.7 17.2286 44.3185 16.3137 43.8676L14.6203 43.0527L12.2261 42.9833C10.9025 42.9486 9.8125 42.9833 9.8125 43.0527Z" fill="black"/>
<path d="M36.3435 43.8504L34.5527 44.7521L37.7644 44.7867L40.9566 44.8041L42.1634 44.0758C42.8252 43.677 43.3897 43.2608 43.4286 43.1568C43.487 43.0181 42.689 42.966 40.8204 42.9487H38.1342L36.3435 43.8504Z" fill="black"/>
<path d="M13.706 45.4629L14.5819 45.9485L18.6695 45.9831L22.7571 46.0178L21.1999 45.567C19.8179 45.1682 19.2534 45.1161 16.2364 45.0468L12.8301 44.9774L13.706 45.4629Z" fill="black"/>
<path d="M32.6843 45.2549C32.2561 45.3936 31.4775 45.6017 30.9325 45.7404C30.0176 45.9831 30.1928 45.9831 34.2415 46.0005L38.5237 46.0178L39.5943 45.515L40.6648 45.0121H37.0638C34.5529 45.0121 33.2293 45.0988 32.6843 45.2549Z" fill="black"/>
<path d="M16.5669 46.6421C21.7834 48.7749 29.2189 49.0003 35.1946 47.2143C38.6982 46.1739 39.0681 46.2259 26.7469 46.2259L15.5547 46.2433L16.5669 46.6421Z" fill="black"/>
</svg>
