<svg width="18" height="18" viewBox="0 0 18 18" fill="none" xmlns="http://www.w3.org/2000/svg">
<path fill-rule="evenodd" clip-rule="evenodd" d="M8 1.99988C11.3137 1.99988 14 4.68617 14 7.99988C14 11.3136 11.3137 13.9999 8 13.9999C4.68629 13.9999 2 11.3136 2 7.99988C2 4.68617 4.68629 1.99988 8 1.99988ZM8 -0.00012207C12.4183 -0.00012207 16 3.5816 16 7.99988C16 9.84859 15.3729 11.5508 14.3199 12.9055L17.7071 16.2928C18.0976 16.6833 18.0976 17.3165 17.7071 17.707C17.3166 18.0975 16.6834 18.0975 16.2929 17.707L12.9056 14.3197C11.551 15.3728 9.84871 15.9999 8 15.9999C3.58172 15.9999 0 12.4182 0 7.99988C0 3.5816 3.58172 -0.00012207 8 -0.00012207Z" fill="#222222"/>
</svg>
